<svg data-icon-name="upload-11" data-style="line" viewBox="0 0 24 24" xmlns="http://www.w3.org/2000/svg" id="upload-11" class="icon line" width="48" height="48"><path style="fill: none; stroke: rgb(0, 0, 0); stroke-linecap: round; stroke-linejoin: round; stroke-width: 1;" d="M18.35,9.44,17.05,11a1,1,0,0,1-1.41.11L14,9.66V17H10V9.66L8.36,11.07A1,1,0,0,1,7,11L5.65,9.44A1,1,0,0,1,5.76,8l5.59-4.79a1,1,0,0,1,1.3,0L18.24,8A1,1,0,0,1,18.35,9.44ZM20,17v3a1,1,0,0,1-1,1H5a1,1,0,0,1-1-1V17" id="primary"></path></svg>