<svg data-icon-name="cursor-up" data-style="flat-line" viewBox="0 0 24 24" xmlns="http://www.w3.org/2000/svg" data-name="Flat Line" id="cursor-up" class="icon flat-line" width="48" height="48"><path style="stroke-width: 1; fill: rgb(202, 162, 237);" d="M17.16,20.79,12,17.37,6.84,20.79a1.14,1.14,0,0,1-1.77-1.23l6-15.92a1,1,0,0,1,1.88,0l6,15.92A1.14,1.14,0,0,1,17.16,20.79Z" id="secondary"></path><path style="fill: none; stroke: rgb(101, 45, 144); stroke-linecap: round; stroke-linejoin: round; stroke-width: 1;" d="M17.16,20.79,12,17.37,6.84,20.79a1.14,1.14,0,0,1-1.77-1.23l6-15.92a1,1,0,0,1,1.88,0l6,15.92A1.14,1.14,0,0,1,17.16,20.79Z" id="primary"></path></svg>