<?xml version='1.0' encoding='UTF-8' standalone='yes'?>
<!-- Created with sK1/UniConvertor (http://sk1project.org/) -->
<svg width="450.6pt" fill-rule="evenodd" viewBox="0 0 409.6 409.6" height="450.6pt" xmlns="http://www.w3.org/2000/svg" xmlns:xlink="http://www.w3.org/1999/xlink">
 <g>
  <path style="stroke:none; fill:none" d="M 0 0L 0 409.6L 409.6 409.6L 409.6 0L 0 0z"/>
  <path style="stroke:none; fill:#b8d2ec" d="M 193.6 16L 193.6 16.8L 196.8 16.8C 195.595 16.2536 194.948 16.1393 193.6 16z"/>
  <path style="stroke:none; fill:#84adde" d="M 196.8 16L 196.8 16.8L 212.8 16.8C 208.228 14.8816 201.735 16 196.8 16z"/>
  <path style="stroke:none; fill:#b8d2ec" d="M 212.8 16L 212.8 16.8L 216.8 16.8C 215.385 16.1769 214.371 16.0701 212.8 16M 184.534 17.0667C 184.178 17.4223 185.022 17.3777 185.066 17.3334C 185.422 16.9779 184.578 17.0222 184.534 17.0667z"/>
  <path style="stroke:none; fill:#84adde" d="M 185.6 16.8L 185.6 17.6L 188 17.6C 187.002 17.0522 186.762 17.001 185.6 16.8z"/>
  <path style="stroke:none; fill:#4686ce" d="M 188 16.8L 188 17.6L 190.4 17.6C 189.402 17.0522 189.162 17.001 188 16.8z"/>
  <path style="stroke:none; fill:#015bb9" d="M 19.2 200.8L 32 200.8C 32 178.938 36.5491 156.926 45.137 136.8C 53.9686 116.102 66.4478 96.776 82.412 80.812C 140.59 22.6342 234.446 13.1223 302.4 60.0204C 325.27 75.8044 343.631 96.6752 357.261 120.8C 370.994 145.11 377.212 173.13 378.4 200.8L 391.2 200.8C 391.2 178.692 386.759 156.73 379.158 136C 372.943 119.054 363.582 103.14 352.696 88.8C 286.137 1.12207 151.123 -7.1181 73.6 70.4C 57.2773 86.7216 43.6509 105.94 34.5204 127.2C 24.3984 150.769 19.2 175.167 19.2 200.8z"/>
  <path style="stroke:none; fill:#4686ce" d="M 219.2 16.8L 219.2 17.6L 221.6 17.6C 220.602 17.0522 220.362 17.001 219.2 16.8z"/>
  <path style="stroke:none; fill:#84adde" d="M 221.6 16.8L 221.6 17.6L 224 17.6C 223.002 17.0522 222.762 17.001 221.6 16.8z"/>
  <path style="stroke:none; fill:#b8d2ec" d="M 224.534 17.0667C 224.178 17.4222 225.022 17.3778 225.066 17.3334C 225.422 16.9778 224.578 17.0223 224.534 17.0667M 178.134 17.8666C 177.778 18.2223 178.622 18.1777 178.666 18.1334C 179.022 17.7779 178.178 17.8222 178.134 17.8666z"/>
  <path style="stroke:none; fill:#689dd5" d="M 179.734 17.8666C 179.378 18.2224 180.222 18.1777 180.266 18.1334C 180.622 17.7779 179.778 17.8222 179.734 17.8666z"/>
  <path style="stroke:none; fill:#337bc7" d="M 181.334 17.8666C 180.978 18.2224 181.822 18.1776 181.866 18.1334C 182.222 17.7779 181.378 17.8222 181.334 17.8666z"/>
  <path style="stroke:none; fill:#4686ce" d="M 228.534 17.8666C 228.178 18.2222 229.022 18.1778 229.066 18.1334C 229.422 17.7778 228.578 17.8222 228.534 17.8666z"/>
  <path style="stroke:none; fill:#9fc3e7" d="M 229.6 17.6L 229.6 18.4L 232 18.4C 231.002 17.8522 230.762 17.801 229.6 17.6M 172.8 18.4L 172.8 19.2L 175.2 19.2C 174.202 18.6522 173.962 18.601 172.8 18.4z"/>
  <path style="stroke:none; fill:#689dd5" d="M 233.6 18.4L 233.6 19.2L 236 19.2C 235.002 18.6522 234.762 18.601 233.6 18.4z"/>
  <path style="stroke:none; fill:#84adde" d="M 169.334 19.4666C 168.978 19.8223 169.822 19.7777 169.866 19.7334C 170.222 19.3779 169.378 19.4221 169.334 19.4666z"/>
  <path style="stroke:none; fill:#689dd5" d="M 238.4 19.2L 238.4 20L 240.8 20C 239.802 19.4522 239.562 19.401 238.4 19.2z"/>
  <path style="stroke:none; fill:#b8d2ec" d="M 240.8 19.2L 241.6 20L 240.8 19.2M 164.8 20L 165.6 20.8L 164.8 20z"/>
  <path style="stroke:none; fill:#84adde" d="M 165.6 20L 166.4 20.8L 165.6 20z"/>
  <path style="stroke:none; fill:#689dd5" d="M 243.2 20L 244 20.8L 243.2 20z"/>
  <path style="stroke:none; fill:#e2e2e3" d="M 244.534 20.2666C 244.178 20.6222 245.022 20.5779 245.066 20.5334C 245.422 20.1778 244.578 20.2223 244.534 20.2666z"/>
  <path style="stroke:none; fill:#9fc3e7" d="M 161.6 20.8L 162.4 21.6L 161.6 20.8z"/>
  <path style="stroke:none; fill:#337bc7" d="M 162.934 21.0667C 162.578 21.4223 163.422 21.3777 163.466 21.3334C 163.822 20.9779 162.978 21.0222 162.934 21.0667z"/>
  <path style="stroke:none; fill:#4686ce" d="M 246.4 20.8L 247.2 21.6L 246.4 20.8z"/>
  <path style="stroke:none; fill:#84adde" d="M 247.2 20.8L 248 21.6L 247.2 20.8z"/>
  <path style="stroke:none; fill:#b8d2ec" d="M 248 20.8L 248.8 21.6L 248 20.8z"/>
  <path style="stroke:none; fill:#9fc3e7" d="M 158.4 21.6L 159.2 22.4L 158.4 21.6z"/>
  <path style="stroke:none; fill:#689dd5" d="M 159.2 21.6L 160 22.4L 159.2 21.6z"/>
  <path style="stroke:none; fill:#4686ce" d="M 249.6 21.6L 250.4 22.4L 249.6 21.6z"/>
  <path style="stroke:none; fill:#84adde" d="M 250.4 21.6L 251.2 22.4L 250.4 21.6z"/>
  <path style="stroke:none; fill:#b8d2ec" d="M 251.2 21.6L 252 22.4L 251.2 21.6z"/>
  <path style="stroke:none; fill:#9fc3e7" d="M 155.2 22.4L 156 23.2L 155.2 22.4z"/>
  <path style="stroke:none; fill:#689dd5" d="M 156 22.4L 156.8 23.2L 156 22.4z"/>
  <path style="stroke:none; fill:#4686ce" d="M 252.8 22.4L 253.6 23.2L 252.8 22.4z"/>
  <path style="stroke:none; fill:#84adde" d="M 253.6 22.4L 254.4 23.2L 253.6 22.4M 152.8 23.2L 153.6 24L 152.8 23.2z"/>
  <path style="stroke:none; fill:#689dd5" d="M 256 23.2L 256.8 24L 256 23.2z"/>
  <path style="stroke:none; fill:#9fc3e7" d="M 256.8 23.2L 257.6 24L 256.8 23.2z"/>
  <path style="stroke:none; fill:#b8d2ec" d="M 149.6 24L 150.4 24.8L 149.6 24z"/>
  <path style="stroke:none; fill:#689dd5" d="M 150.4 24L 151.2 24.8L 150.4 24z"/>
  <path style="stroke:none; fill:#84adde" d="M 259.2 24L 260 24.8L 259.2 24z"/>
  <path style="stroke:none; fill:#9fc3e7" d="M 147.2 24.8L 148 25.6L 147.2 24.8z"/>
  <path style="stroke:none; fill:#4686ce" d="M 148 24.8L 148.8 25.6L 148 24.8z"/>
  <path style="stroke:none; fill:#689dd5" d="M 261.6 24.8L 262.4 25.6L 261.6 24.8z"/>
  <path style="stroke:none; fill:#9fc3e7" d="M 144.8 25.6L 145.6 26.4L 144.8 25.6z"/>
  <path style="stroke:none; fill:#4686ce" d="M 145.6 25.6L 146.4 26.4L 145.6 25.6z"/>
  <path style="stroke:none; fill:#689dd5" d="M 264 25.6L 264.8 26.4L 264 25.6z"/>
  <path style="stroke:none; fill:#9fc3e7" d="M 142.4 26.4L 143.2 27.2L 142.4 26.4z"/>
  <path style="stroke:none; fill:#4686ce" d="M 143.2 26.4L 144 27.2L 143.2 26.4z"/>
  <path style="stroke:none; fill:#689dd5" d="M 266.4 26.4L 267.2 27.2L 266.4 26.4z"/>
  <path style="stroke:none; fill:#b8d2ec" d="M 140 27.2L 140.8 28L 140 27.2z"/>
  <path style="stroke:none; fill:#689dd5" d="M 140.8 27.2L 141.6 28L 140.8 27.2z"/>
  <path style="stroke:none; fill:#84adde" d="M 268.8 27.2L 269.6 28L 268.8 27.2M 138.4 28L 139.2 28.8L 138.4 28z"/>
  <path style="stroke:none; fill:#4686ce" d="M 270.4 28L 271.2 28.8L 270.4 28z"/>
  <path style="stroke:none; fill:#b8d2ec" d="M 271.2 28L 272 28.8L 271.2 28z"/>
  <path style="stroke:none; fill:#9fc3e7" d="M 136 28.8L 136.8 29.6L 136 28.8z"/>
  <path style="stroke:none; fill:#4686ce" d="M 136.8 28.8L 137.6 29.6L 136.8 28.8z"/>
  <path style="stroke:none; fill:#689dd5" d="M 272.8 28.8L 273.6 29.6L 272.8 28.8M 134.4 29.6L 135.2 30.4L 134.4 29.6z"/>
  <path style="stroke:none; fill:#337bc7" d="M 32 200.8L 378.4 200.8C 377.883 175.771 371.87 151.612 361.711 128.8C 353.426 110.197 340.737 93.5136 326.4 79.2C 267.639 20.5332 171.102 13.9885 104 61.942C 76.2812 81.7512 56.5919 108.866 43.4272 140C 35.4334 158.905 32 180.4 32 200.8z"/>
  <path style="stroke:none; fill:#4686ce" d="M 274.4 29.6L 275.2 30.4L 274.4 29.6z"/>
  <path style="stroke:none; fill:#9fc3e7" d="M 275.2 29.6L 276 30.4L 275.2 29.6z"/>
  <path style="stroke:none; fill:#b8d2ec" d="M 132 30.4L 132.8 31.2L 132 30.4z"/>
  <path style="stroke:none; fill:#4686ce" d="M 132.8 30.4L 133.6 31.2L 132.8 30.4z"/>
  <path style="stroke:none; fill:#84adde" d="M 276.8 30.4L 277.6 31.2L 276.8 30.4M 130.4 31.2L 131.2 32L 130.4 31.2z"/>
  <path style="stroke:none; fill:#689dd5" d="M 278.4 31.2L 279.2 32L 278.4 31.2z"/>
  <path style="stroke:none; fill:#b8d2ec" d="M 279.2 31.2L 280 32L 279.2 31.2z"/>
  <path style="stroke:none; fill:#689dd5" d="M 128.8 32L 129.6 32.8L 128.8 32z"/>
  <path style="stroke:none; fill:#4686ce" d="M 280 32L 280.8 32.8L 280 32z"/>
  <path style="stroke:none; fill:#9fc3e7" d="M 280.8 32L 281.6 32.8L 280.8 32z"/>
  <path style="stroke:none; fill:#b8d2ec" d="M 126.4 32.8L 127.2 33.6L 126.4 32.8z"/>
  <path style="stroke:none; fill:#689dd5" d="M 127.2 32.8L 128 33.6L 127.2 32.8z"/>
  <path style="stroke:none; fill:#9fc3e7" d="M 282.4 32.8L 283.2 33.6L 282.4 32.8z"/>
  <path style="stroke:none; fill:#b8d2ec" d="M 124.8 33.6L 125.6 34.4L 124.8 33.6z"/>
  <path style="stroke:none; fill:#4686ce" d="M 125.6 33.6L 126.4 34.4L 125.6 33.6z"/>
  <path style="stroke:none; fill:#84adde" d="M 284 33.6L 284.8 34.4L 284 33.6z"/>
  <path style="stroke:none; fill:#b8d2ec" d="M 123.2 34.4L 124 35.2L 123.2 34.4z"/>
  <path style="stroke:none; fill:#4686ce" d="M 124 34.4L 124.8 35.2L 124 34.4z"/>
  <path style="stroke:none; fill:#84adde" d="M 285.6 34.4L 286.4 35.2L 285.6 34.4z"/>
  <path style="stroke:none; fill:#9fc3e7" d="M 121.6 35.2L 122.4 36L 121.6 35.2z"/>
  <path style="stroke:none; fill:#689dd5" d="M 287.2 35.2L 288 36L 287.2 35.2z"/>
  <path style="stroke:none; fill:#9fc3e7" d="M 120 36L 120.8 36.8L 120 36z"/>
  <path style="stroke:none; fill:#689dd5" d="M 288.8 36L 289.6 36.8L 288.8 36z"/>
  <path style="stroke:none; fill:#b8d2ec" d="M 118.4 36.8L 119.2 37.6L 118.4 36.8z"/>
  <path style="stroke:none; fill:#4686ce" d="M 119.2 36.8L 120 37.6L 119.2 36.8z"/>
  <path style="stroke:none; fill:#84adde" d="M 290.4 36.8L 291.2 37.6L 290.4 36.8z"/>
  <path style="stroke:none; fill:#b8d2ec" d="M 116.8 37.6L 117.6 38.4L 116.8 37.6z"/>
  <path style="stroke:none; fill:#4686ce" d="M 117.6 37.6L 118.4 38.4L 117.6 37.6z"/>
  <path style="stroke:none; fill:#84adde" d="M 292 37.6L 292.8 38.4L 292 37.6z"/>
  <path style="stroke:none; fill:#4686ce" d="M 116 38.4L 116.8 39.2L 116 38.4z"/>
  <path style="stroke:none; fill:#84adde" d="M 293.6 38.4L 294.4 39.2L 293.6 38.4z"/>
  <path style="stroke:none; fill:#689dd5" d="M 114.4 39.2L 115.2 40L 114.4 39.2z"/>
  <path style="stroke:none; fill:#b8d2ec" d="M 295.2 39.2L 296 40L 295.2 39.2z"/>
  <path style="stroke:none; fill:#84adde" d="M 112.8 40L 113.6 40.8L 112.8 40z"/>
  <path style="stroke:none; fill:#4686ce" d="M 296 40L 296.8 40.8L 296 40z"/>
  <path style="stroke:none; fill:#b8d2ec" d="M 111.2 40.8L 112 41.6L 111.2 40.8z"/>
  <path style="stroke:none; fill:#689dd5" d="M 297.6 40.8L 298.4 41.6L 297.6 40.8z"/>
  <path style="stroke:none; fill:#4686ce" d="M 110.4 41.6L 111.2 42.4L 110.4 41.6z"/>
  <path style="stroke:none; fill:#84adde" d="M 299.2 41.6L 300 42.4L 299.2 41.6z"/>
  <path style="stroke:none; fill:#689dd5" d="M 108.8 42.4L 109.6 43.2L 108.8 42.4z"/>
  <path style="stroke:none; fill:#b8d2ec" d="M 300.8 42.4L 301.6 43.2L 300.8 42.4z"/>
  <path style="stroke:none; fill:#9fc3e7" d="M 107.2 43.2L 108 44L 107.2 43.2z"/>
  <path style="stroke:none; fill:#4686ce" d="M 301.6 43.2L 302.4 44L 301.6 43.2M 106.4 44L 107.2 44.8L 106.4 44z"/>
  <path style="stroke:none; fill:#84adde" d="M 303.2 44L 304 44.8L 303.2 44M 104.8 44.8L 105.6 45.6L 104.8 44.8M 305.6 45.6L 306.4 46.4L 305.6 45.6z"/>
  <path style="stroke:none; fill:#689dd5" d="M 102.4 46.4L 103.2 47.2L 102.4 46.4z"/>
  <path style="stroke:none; fill:#b8d2ec" d="M 307.2 46.4L 308 47.2L 307.2 46.4M 100.8 47.2L 101.6 48L 100.8 47.2z"/>
  <path style="stroke:none; fill:#689dd5" d="M 308 47.2L 308.8 48L 308 47.2M 100 48L 100.8 48.8L 100 48z"/>
  <path style="stroke:none; fill:#84adde" d="M 310.4 48.8L 311.2 49.6L 310.4 48.8M 97.6 49.6L 98.4 50.4L 97.6 49.6z"/>
  <path style="stroke:none; fill:#4686ce" d="M 96.8 50.4L 97.6 51.2L 96.8 50.4z"/>
  <path style="stroke:none; fill:#84adde" d="M 312.8 50.4L 313.6 51.2L 312.8 50.4z"/>
  <path style="stroke:none; fill:#b8d2ec" d="M 95.2 51.2L 96 52L 95.2 51.2z"/>
  <path style="stroke:none; fill:#4686ce" d="M 313.6 51.2L 314.4 52L 313.6 51.2z"/>
  <path style="stroke:none; fill:#689dd5" d="M 94.4 52L 95.2 52.8L 94.4 52z"/>
  <path style="stroke:none; fill:#b8d2ec" d="M 315.2 52L 316 52.8L 315.2 52z"/>
  <path style="stroke:none; fill:#84adde" d="M 316 52.8L 316.8 53.6L 316 52.8z"/>
  <path style="stroke:none; fill:#9fc3e7" d="M 92 53.6L 92.8 54.4L 92 53.6z"/>
  <path style="stroke:none; fill:#4686ce" d="M 316.8 53.6L 317.6 54.4L 316.8 53.6z"/>
  <path style="stroke:none; fill:#689dd5" d="M 91.2 54.4L 92 55.2L 91.2 54.4z"/>
  <path style="stroke:none; fill:#b8d2ec" d="M 318.4 54.4L 319.2 55.2L 318.4 54.4z"/>
  <path style="stroke:none; fill:#84adde" d="M 319.2 55.2L 320 56L 319.2 55.2z"/>
  <path style="stroke:none; fill:#b8d2ec" d="M 88.8 56L 89.6 56.8L 88.8 56z"/>
  <path style="stroke:none; fill:#689dd5" d="M 320 56L 320.8 56.8L 320 56z"/>
  <path style="stroke:none; fill:#84adde" d="M 88 56.8L 88.8 57.6L 88 56.8z"/>
  <path style="stroke:none; fill:#689dd5" d="M 87.2 57.6L 88 58.4L 87.2 57.6z"/>
  <path style="stroke:none; fill:#b8d2ec" d="M 322.4 57.6L 323.2 58.4L 322.4 57.6z"/>
  <path style="stroke:none; fill:#84adde" d="M 323.2 58.4L 324 59.2L 323.2 58.4z"/>
  <path style="stroke:none; fill:#689dd5" d="M 324 59.2L 324.8 60L 324 59.2z"/>
  <path style="stroke:none; fill:#9fc3e7" d="M 84 60L 84.8 60.8L 84 60z"/>
  <path style="stroke:none; fill:#84adde" d="M 83.2 60.8L 84 61.6L 83.2 60.8z"/>
  <path style="stroke:none; fill:#689dd5" d="M 82.4 61.6L 83.2 62.4L 82.4 61.6z"/>
  <path style="stroke:none; fill:#9fc3e7" d="M 328 62.4L 328.8 63.2L 328 62.4M 328.8 63.2L 329.6 64L 328.8 63.2z"/>
  <path style="stroke:none; fill:#689dd5" d="M 329.6 64L 330.4 64.8L 329.6 64M 330.4 64.8L 331.2 65.6L 330.4 64.8z"/>
  <path style="stroke:none; fill:#b8d2ec" d="M 77.6 65.6L 78.4 66.4L 77.6 65.6z"/>
  <path style="stroke:none; fill:#689dd5" d="M 331.2 65.6L 332 66.4L 331.2 65.6z"/>
  <path style="stroke:none; fill:#9fc3e7" d="M 76.8 66.4L 77.6 67.2L 76.8 66.4M 76 67.2L 76.8 68L 76 67.2M 75.2 68L 76 68.8L 75.2 68M 74.4 68.8L 75.2 69.6L 74.4 68.8M 73.6 69.6L 74.4 70.4L 73.6 69.6M 72.8 70.4L 73.6 71.2L 72.8 70.4M 72 71.2L 72.8 72L 72 71.2M 71.2 72L 72 72.8L 71.2 72M 70.4 72.8L 71.2 73.6L 70.4 72.8M 69.6 73.6L 70.4 74.4L 69.6 73.6M 68.8 74.4L 69.6 75.2L 68.8 74.4z"/>
  <path style="stroke:none; fill:#b8d2ec" d="M 68 75.2L 68.8 76L 68 75.2z"/>
  <path style="stroke:none; fill:#689dd5" d="M 341.6 76L 342.4 76.8L 341.6 76M 342.4 76.8L 343.2 77.6L 342.4 76.8M 343.2 77.6L 344 78.4L 343.2 77.6z"/>
  <path style="stroke:none; fill:#9fc3e7" d="M 344 78.4L 344.8 79.2L 344 78.4z"/>
  <path style="stroke:none; fill:#b8d2ec" d="M 344.8 79.2L 345.6 80L 344.8 79.2z"/>
  <path style="stroke:none; fill:#689dd5" d="M 64 80L 64.8 80.8L 64 80M 63.2 80.8L 64 81.6L 63.2 80.8z"/>
  <path style="stroke:none; fill:#9fc3e7" d="M 62.4 81.6L 63.2 82.4L 62.4 81.6z"/>
  <path style="stroke:none; fill:#b8d2ec" d="M 61.6 82.4L 62.4 83.2L 61.6 82.4z"/>
  <path style="stroke:none; fill:#4686ce" d="M 347.2 82.4L 348 83.2L 347.2 82.4z"/>
  <path style="stroke:none; fill:#689dd5" d="M 348 83.2L 348.8 84L 348 83.2z"/>
  <path style="stroke:none; fill:#9fc3e7" d="M 348.8 84L 349.6 84.8L 348.8 84z"/>
  <path style="stroke:none; fill:#4686ce" d="M 60 84.8L 60.8 85.6L 60 84.8z"/>
  <path style="stroke:none; fill:#689dd5" d="M 59.2 85.6L 60 86.4L 59.2 85.6z"/>
  <path style="stroke:none; fill:#9fc3e7" d="M 58.4 86.4L 59.2 87.2L 58.4 86.4z"/>
  <path style="stroke:none; fill:#689dd5" d="M 351.2 87.2L 352 88L 351.2 87.2z"/>
  <path style="stroke:none; fill:#9fc3e7" d="M 352 88L 352.8 88.8L 352 88z"/>
  <path style="stroke:none; fill:#4686ce" d="M 56.8 88.8L 57.6 89.6L 56.8 88.8z"/>
  <path style="stroke:none; fill:#84adde" d="M 56 89.6L 56.8 90.4L 56 89.6z"/>
  <path style="stroke:none; fill:#4686ce" d="M 353.6 90.4L 354.4 91.2L 353.6 90.4z"/>
  <path style="stroke:none; fill:#84adde" d="M 354.4 91.2L 355.2 92L 354.4 91.2z"/>
  <path style="stroke:none; fill:#4686ce" d="M 54.4 92L 55.2 92.8L 54.4 92z"/>
  <path style="stroke:none; fill:#84adde" d="M 53.6 92.8L 54.4 93.6L 53.6 92.8z"/>
  <path style="stroke:none; fill:#689dd5" d="M 356 93.6L 356.8 94.4L 356 93.6z"/>
  <path style="stroke:none; fill:#b8d2ec" d="M 356.8 94.4L 357.6 95.2L 356.8 94.4z"/>
  <path style="stroke:none; fill:#689dd5" d="M 52 95.2L 52.8 96L 52 95.2z"/>
  <path style="stroke:none; fill:#b8d2ec" d="M 51.2 96L 52 96.8L 51.2 96z"/>
  <path style="stroke:none; fill:#4686ce" d="M 357.6 96L 358.4 96.8L 357.6 96z"/>
  <path style="stroke:none; fill:#84adde" d="M 358.4 96.8L 359.2 97.6L 358.4 96.8z"/>
  <path style="stroke:none; fill:#4686ce" d="M 50.4 97.6L 51.2 98.4L 50.4 97.6z"/>
  <path style="stroke:none; fill:#b8d2ec" d="M 49.6 98.4L 50.4 99.2L 49.6 98.4z"/>
  <path style="stroke:none; fill:#84adde" d="M 360 99.2L 360.8 100L 360 99.2z"/>
  <path style="stroke:none; fill:#4686ce" d="M 48.8 100L 49.6 100.8L 48.8 100z"/>
  <path style="stroke:none; fill:#b8d2ec" d="M 48 100.8L 48.8 101.6L 48 100.8z"/>
  <path style="stroke:none; fill:#84adde" d="M 361.6 101.6L 362.4 102.4L 361.6 101.6z"/>
  <path style="stroke:none; fill:#689dd5" d="M 47.2 102.4L 48 103.2L 47.2 102.4z"/>
  <path style="stroke:none; fill:#b8d2ec" d="M 46.4 103.2L 47.2 104L 46.4 103.2z"/>
  <path style="stroke:none; fill:#4686ce" d="M 362.4 103.2L 363.2 104L 362.4 103.2z"/>
  <path style="stroke:none; fill:#b8d2ec" d="M 363.2 104L 364 104.8L 363.2 104z"/>
  <path style="stroke:none; fill:#84adde" d="M 45.6 104.8L 46.4 105.6L 45.6 104.8z"/>
  <path style="stroke:none; fill:#689dd5" d="M 364 105.6L 364.8 106.4L 364 105.6z"/>
  <path style="stroke:none; fill:#4686ce" d="M 44.8 106.4L 45.6 107.2L 44.8 106.4z"/>
  <path style="stroke:none; fill:#b8d2ec" d="M 44 107.2L 44.8 108L 44 107.2z"/>
  <path style="stroke:none; fill:#4686ce" d="M 364.8 107.2L 365.6 108L 364.8 107.2z"/>
  <path style="stroke:none; fill:#9fc3e7" d="M 365.6 108L 366.4 108.8L 365.6 108z"/>
  <path style="stroke:none; fill:#84adde" d="M 43.2 108.8L 44 109.6L 43.2 108.8M 366.4 109.6L 367.2 110.4L 366.4 109.6z"/>
  <path style="stroke:none; fill:#689dd5" d="M 42.4 110.4L 43.2 111.2L 42.4 110.4z"/>
  <path style="stroke:none; fill:#4686ce" d="M 367.2 111.2L 368 112L 367.2 111.2M 41.6 112L 42.4 112.8L 41.6 112z"/>
  <path style="stroke:none; fill:#b8d2ec" d="M 368 112L 368.8 112.8L 368 112M 40.8 112.8L 41.6 113.6L 40.8 112.8z"/>
  <path style="stroke:none; fill:#4686ce" d="M 368 112.8L 368.8 113.6L 368 112.8z"/>
  <path style="stroke:none; fill:#b8d2ec" d="M 368.8 113.6L 369.6 114.4L 368.8 113.6z"/>
  <path style="stroke:none; fill:#9fc3e7" d="M 40 114.4L 40.8 115.2L 40 114.4M 369.6 115.2L 370.4 116L 369.6 115.2z"/>
  <path style="stroke:none; fill:#84adde" d="M 39.2 116L 40 116.8L 39.2 116M 370.4 116.8L 371.2 117.6L 370.4 116.8M 38.4 117.6L 39.2 118.4L 38.4 117.6M 371.2 118.4L 372 119.2L 371.2 118.4M 37.6 119.2L 38.4 120L 37.6 119.2M 372 120L 372.8 120.8L 372 120M 36.8 120.8L 37.6 121.6L 36.8 120.8M 372.8 121.6L 373.6 122.4L 372.8 121.6z"/>
  <path style="stroke:none; fill:#9fc3e7" d="M 36 122.4L 36.8 123.2L 36 122.4M 373.6 123.2L 374.4 124L 373.6 123.2M 35.2 124L 36 124.8L 35.2 124z"/>
  <path style="stroke:none; fill:#b8d2ec" d="M 374.4 124.8L 375.2 125.6L 374.4 124.8M 34.4 125.6L 35.2 126.4L 34.4 125.6z"/>
  <path style="stroke:none; fill:#4686ce" d="M 374.4 125.6L 375.2 126.4L 374.4 125.6M 34.4 126.4L 35.2 127.2L 34.4 126.4z"/>
  <path style="stroke:none; fill:#b8d2ec" d="M 375.2 126.4L 376 127.2L 375.2 126.4z"/>
  <path style="stroke:none; fill:#689dd5" d="M 375.2 127.2L 376 128L 375.2 127.2M 33.6 128L 34.4 128.8L 33.6 128z"/>
  <path style="stroke:none; fill:#84adde" d="M 376 128.8L 376.8 129.6L 376 128.8M 32.8 129.6L 33.6 130.4L 32.8 129.6z"/>
  <path style="stroke:none; fill:#9fc3e7" d="M 376.8 130.4L 377.6 131.2L 376.8 130.4z"/>
  <path style="stroke:none; fill:#b8d2ec" d="M 32 131.2L 32.8 132L 32 131.2z"/>
  <path style="stroke:none; fill:#4686ce" d="M 32 132L 32.8 132.8L 32 132z"/>
  <path style="stroke:none; fill:#689dd5" d="M 377.6 132.8L 378.4 133.6L 377.6 132.8M 31.2 133.6L 32 134.4L 31.2 133.6z"/>
  <path style="stroke:none; fill:#9fc3e7" d="M 378.4 134.4L 379.2 135.2L 378.4 134.4z"/>
  <path style="stroke:none; fill:#b8d2ec" d="M 30.4 135.2L 31.2 136L 30.4 135.2z"/>
  <path style="stroke:none; fill:#4686ce" d="M 30.4 136L 31.2 136.8L 30.4 136z"/>
  <path style="stroke:none; fill:#689dd5" d="M 379.2 136.8L 380 137.6L 379.2 136.8z"/>
  <path style="stroke:none; fill:#84adde" d="M 29.6 137.6L 30.4 138.4L 29.6 137.6z"/>
  <path style="stroke:none; fill:#b8d2ec" d="M 380 138.4L 380.8 139.2L 380 138.4z"/>
  <path style="stroke:none; fill:#689dd5" d="M 380 139.2L 380.8 140L 380 139.2M 28.8 140L 29.6 140.8L 28.8 140z"/>
  <path style="stroke:none; fill:#9fc3e7" d="M 380.8 140.8L 381.6 141.6L 380.8 140.8z"/>
  <path style="stroke:none; fill:#4686ce" d="M 380.8 141.6L 381.6 142.4L 380.8 141.6z"/>
  <path style="stroke:none; fill:#689dd5" d="M 28 142.4L 28.8 143.2L 28 142.4z"/>
  <path style="stroke:none; fill:#9fc3e7" d="M 381.6 143.2L 382.4 144L 381.6 143.2z"/>
  <path style="stroke:none; fill:#4686ce" d="M 381.6 144L 382.4 144.8L 381.6 144z"/>
  <path style="stroke:none; fill:#689dd5" d="M 27.2 144.8L 28 145.6L 27.2 144.8z"/>
  <path style="stroke:none; fill:#9fc3e7" d="M 382.4 145.6L 383.2 146.4L 382.4 145.6z"/>
  <path style="stroke:none; fill:#4686ce" d="M 382.4 146.4L 383.2 147.2L 382.4 146.4z"/>
  <path style="stroke:none; fill:#689dd5" d="M 26.4 147.2L 27.2 148L 26.4 147.2z"/>
  <path style="stroke:none; fill:#b8d2ec" d="M 383.2 148L 384 148.8L 383.2 148z"/>
  <path style="stroke:none; fill:#689dd5" d="M 383.2 148.8L 384 149.6L 383.2 148.8z"/>
  <path style="stroke:none; fill:#84adde" d="M 25.6 149.6L 26.4 150.4L 25.6 149.6z"/>
  <path style="stroke:none; fill:#4686ce" d="M 25.6 150.4L 26.4 151.2L 25.6 150.4z"/>
  <path style="stroke:none; fill:#84adde" d="M 384 151.2L 384.8 152L 384 151.2z"/>
  <path style="stroke:none; fill:#b8d2ec" d="M 24.8 152L 25.6 152.8L 24.8 152z"/>
  <path style="stroke:none; fill:#689dd5" d="M 24.8 152.8L 25.6 153.6L 24.8 152.8z"/>
  <path style="stroke:none; fill:#b8d2ec" d="M 384.8 153.6L 385.6 154.4L 384.8 153.6z"/>
  <path style="stroke:none; fill:#689dd5" d="M 384.8 154.4L 385.6 155.2L 384.8 154.4z"/>
  <path style="stroke:none; fill:#9fc3e7" d="M 24 155.2L 24.8 156L 24 155.2z"/>
  <path style="stroke:none; fill:#689dd5" d="M 24 156L 24.8 156.8L 24 156z"/>
  <path style="stroke:none; fill:#9fc3e7" d="M 385.6 156.8L 386.4 157.6L 385.6 156.8z"/>
  <path style="stroke:none; fill:#689dd5" d="M 385.6 157.6L 386.4 158.4L 385.6 157.6z"/>
  <path style="stroke:none; fill:#9fc3e7" d="M 23.2 158.4L 24 159.2L 23.2 158.4z"/>
  <path style="stroke:none; fill:#337bc7" d="M 23.4666 159.734C 23.4222 159.778 23.3778 160.622 23.7334 160.266C 23.7778 160.222 23.8222 159.378 23.4666 159.734z"/>
  <path style="stroke:none; fill:#b8d2ec" d="M 386.4 160L 387.2 160.8L 386.4 160z"/>
  <path style="stroke:none; fill:#4686ce" d="M 386.666 161.334C 386.622 161.378 386.578 162.222 386.934 161.866C 386.978 161.822 387.022 160.978 386.666 161.334z"/>
  <path style="stroke:none; fill:#84adde" d="M 22.6666 162.134C 22.6222 162.178 22.5778 163.022 22.9334 162.666C 22.9778 162.622 23.0222 161.778 22.6666 162.134M 387.2 163.2L 387.2 165.6L 388 165.6C 387.799 164.438 387.748 164.198 387.2 163.2z"/>
  <path style="stroke:none; fill:#9fc3e7" d="M 21.6 164.8L 21.6 167.2L 22.4 167.2C 22.199 166.038 22.1478 165.798 21.6 164.8z"/>
  <path style="stroke:none; fill:#84adde" d="M 388.266 167.734C 388.222 167.778 388.178 168.622 388.534 168.266C 388.578 168.222 388.622 167.378 388.266 167.734z"/>
  <path style="stroke:none; fill:#4686ce" d="M 388.266 169.334C 388.222 169.378 388.178 170.222 388.534 169.866C 388.578 169.822 388.622 168.978 388.266 169.334z"/>
  <path style="stroke:none; fill:#b8d2ec" d="M 20.8 169.6L 21.6 170.4L 20.8 169.6z"/>
  <path style="stroke:none; fill:#689dd5" d="M 20.8 170.4L 20.8 172.8L 21.6 172.8C 21.399 171.638 21.3478 171.398 20.8 170.4z"/>
  <path style="stroke:none; fill:#b8d2ec" d="M 388.8 172L 389.6 172.8L 388.8 172z"/>
  <path style="stroke:none; fill:#689dd5" d="M 388.8 172.8L 388.8 175.2L 389.6 175.2C 389.399 174.038 389.348 173.798 388.8 172.8z"/>
  <path style="stroke:none; fill:#b8d2ec" d="M 20 174.4L 20.8 175.2L 20 174.4z"/>
  <path style="stroke:none; fill:#84adde" d="M 20.2666 175.734C 20.2222 175.778 20.1778 176.622 20.5334 176.266C 20.5778 176.222 20.6222 175.378 20.2666 175.734z"/>
  <path style="stroke:none; fill:#337bc7" d="M 20.2666 177.334C 20.2222 177.378 20.1778 178.222 20.5334 177.866C 20.5778 177.822 20.6222 176.978 20.2666 177.334z"/>
  <path style="stroke:none; fill:#b8d2ec" d="M 389.866 177.334C 389.822 177.378 389.778 178.222 390.134 177.866C 390.178 177.822 390.222 176.978 389.866 177.334z"/>
  <path style="stroke:none; fill:#689dd5" d="M 389.866 178.934C 389.822 178.978 389.778 179.822 390.134 179.466C 390.178 179.422 390.222 178.578 389.866 178.934z"/>
  <path style="stroke:none; fill:#b8d2ec" d="M 19.4666 180.534C 19.4222 180.578 19.3778 181.422 19.7334 181.066C 19.7778 181.022 19.8222 180.178 19.4666 180.534z"/>
  <path style="stroke:none; fill:#4686ce" d="M 389.866 180.534C 389.822 180.578 389.778 181.422 390.134 181.066C 390.178 181.022 390.222 180.178 389.866 180.534z"/>
  <path style="stroke:none; fill:#84adde" d="M 19.4666 182.134C 19.4222 182.178 19.3778 183.022 19.7334 182.666C 19.7778 182.622 19.8222 181.778 19.4666 182.134z"/>
  <path style="stroke:none; fill:#4686ce" d="M 19.2 183.2L 19.2 185.6L 20 185.6C 19.799 184.438 19.7478 184.198 19.2 183.2z"/>
  <path style="stroke:none; fill:#b8d2ec" d="M 390.4 183.2L 390.4 185.6L 391.2 185.6C 390.999 184.438 390.948 184.198 390.4 183.2z"/>
  <path style="stroke:none; fill:#84adde" d="M 390.4 185.6L 390.4 188L 391.2 188C 390.999 186.838 390.948 186.598 390.4 185.6z"/>
  <path style="stroke:none; fill:#b8d2ec" d="M 18.4 188L 18.4 190.4L 19.2 190.4C 18.999 189.238 18.9478 188.998 18.4 188z"/>
  <path style="stroke:none; fill:#4686ce" d="M 390.4 188L 390.4 190.4L 391.2 190.4C 390.999 189.238 390.948 188.998 390.4 188z"/>
  <path style="stroke:none; fill:#84adde" d="M 18.4 190.4L 18.4 193.6L 19.2 193.6C 19.0607 192.252 18.9465 191.605 18.4 190.4z"/>
  <path style="stroke:none; fill:#4686ce" d="M 18.4 193.6L 18.4 200.8L 19.2 200.8C 19.1986 198.299 19.3704 195.912 18.4 193.6z"/>
  <path style="stroke:none; fill:#b8d2ec" d="M 391.2 194.4L 391.2 201.6L 392 201.6C 391.998 199.099 392.17 196.712 391.2 194.4z"/>
  <path style="stroke:none; fill:#81995f" d="M 18.4 200.8L 18.4 201.6L 32 201.6C 28.0207 199.93 22.6896 200.8 18.4 200.8z"/>
  <path style="stroke:none; fill:#99ac7d" d="M 32 200.8L 32 201.6L 377.6 201.6C 369.578 198.234 355.917 200.8 347.2 200.8L 276.8 200.8L 32 200.8z"/>
  <path style="stroke:none; fill:#81995f" d="M 377.6 200.8L 377.6 201.6L 391.2 201.6C 387.221 199.93 381.89 200.8 377.6 200.8z"/>
  <path style="stroke:none; fill:#ffd301" d="M 18.4 201.6C 20.6574 219.462 20.9005 236.791 25.7216 254.4C 37.7962 298.502 67.7429 337.194 106.4 361.26C 195.257 416.578 318.363 385.38 368.553 292.8C 383.784 264.706 391.2 233.457 391.2 201.6L 378.4 201.6C 378.392 213.416 371.202 219.998 363.2 228C 347.95 243.25 329.982 255.274 310.4 264.247C 242.239 295.478 159.306 295.451 92 261.798C 75.102 253.349 59.0934 242.935 45.6 229.597C 41.3014 225.348 34.9973 220.114 32.6864 214.4C 31.1709 210.653 32 205.577 32 201.6L 18.4 201.6z"/>
  <path style="stroke:none; fill:#ffdd33" d="M 32 201.6C 32 205.797 31.0884 211.249 32.6864 215.2C 34.9883 220.891 41.2895 226.182 45.6 230.388C 58.9018 243.37 74.6478 253.522 91.2 261.798C 157.913 295.154 242.782 296.329 310.4 264.624C 329.842 255.508 347.949 244.046 363.2 228.8C 371.598 220.404 378.398 213.905 378.4 201.6L 32 201.6z"/>
  <path style="stroke:none; fill:#fff4b8" d="M 391.2 201.6L 391.2 211.2L 392 211.2C 392 208.014 392.442 204.558 391.2 201.6z"/>
  <path style="stroke:none; fill:#ffe046" d="M 18.4 204L 18.4 212L 19.2 212C 19.1997 209.269 19.4619 206.53 18.4 204z"/>
  <path style="stroke:none; fill:#f0f0f0" d="M 400.8 206.4C 400.8 214.511 399.836 222.341 399.2 230.4L 400.8 230.4C 400.82 223.047 403.719 213.358 400.8 206.4M 8 207.2L 8 213.6L 8.8 213.6C 8.79424 211.331 8.87816 209.29 8 207.2z"/>
  <path style="stroke:none; fill:#ffeb85" d="M 18.4 212L 18.4 215.2L 19.2 215.2C 19.0607 213.852 18.9464 213.205 18.4 212z"/>
  <path style="stroke:none; fill:#e7e7e7" d="M 8.8 213.6L 8.8 228L 9.6 228C 10.5801 224.121 10.3598 217.317 8.8 213.6z"/>
  <path style="stroke:none; fill:#fff4b8" d="M 18.4 215.2L 18.4 217.6L 19.2 217.6C 18.999 216.438 18.9478 216.198 18.4 215.2z"/>
  <path style="stroke:none; fill:#ffe046" d="M 390.4 215.2L 390.4 218.4L 391.2 218.4C 391.061 217.052 390.946 216.405 390.4 215.2z"/>
  <path style="stroke:none; fill:#ffeb85" d="M 390.666 218.934C 390.622 218.978 390.578 219.822 390.934 219.466C 390.978 219.422 391.022 218.578 390.666 218.934z"/>
  <path style="stroke:none; fill:#fff4b8" d="M 390.4 220L 390.4 222.4L 391.2 222.4C 390.999 221.238 390.948 220.998 390.4 220z"/>
  <path style="stroke:none; fill:#ffe046" d="M 19.4666 221.334C 19.4222 221.378 19.3778 222.222 19.7334 221.866C 19.7778 221.822 19.8222 220.978 19.4666 221.334z"/>
  <path style="stroke:none; fill:#ffeb85" d="M 19.4666 222.934C 19.4222 222.978 19.3778 223.822 19.7334 223.466C 19.7778 223.422 19.8222 222.578 19.4666 222.934z"/>
  <path style="stroke:none; fill:#fff4b8" d="M 19.4666 224.534C 19.4222 224.578 19.3778 225.422 19.7334 225.066C 19.7778 225.022 19.8222 224.178 19.4666 224.534z"/>
  <path style="stroke:none; fill:#ffe046" d="M 389.866 224.534C 389.822 224.578 389.778 225.422 390.134 225.066C 390.178 225.022 390.222 224.178 389.866 224.534z"/>
  <path style="stroke:none; fill:#ffeb85" d="M 389.866 226.134C 389.822 226.178 389.778 227.022 390.134 226.666C 390.178 226.622 390.222 225.778 389.866 226.134z"/>
  <path style="stroke:none; fill:#cdcdcd" d="M 9.6 227.2L 9.6 232L 10.4 232C 10.3622 230.198 10.2994 228.842 9.6 227.2z"/>
  <path style="stroke:none; fill:#ffe046" d="M 20.2666 227.734C 20.2222 227.778 20.1778 228.622 20.5334 228.266C 20.5778 228.222 20.6222 227.378 20.2666 227.734z"/>
  <path style="stroke:none; fill:#fff4b8" d="M 389.866 227.734C 389.822 227.778 389.778 228.622 390.134 228.266C 390.178 228.222 390.222 227.378 389.866 227.734z"/>
  <path style="stroke:none; fill:#ffeb85" d="M 20.2666 229.334C 20.2222 229.378 20.1778 230.222 20.5334 229.866C 20.5778 229.822 20.6222 228.978 20.2666 229.334z"/>
  <path style="stroke:none; fill:#e2e2e3" d="M 10.4 230.4C 9.78784 234.246 9.46224 240.659 12.8 243.2C 12.2784 239.094 12.0321 234.183 10.4 230.4z"/>
  <path style="stroke:none; fill:#ffe667" d="M 388.8 230.4L 388.8 232.8L 389.6 232.8C 389.399 231.639 389.348 231.398 388.8 230.4z"/>
  <path style="stroke:none; fill:#cdcdcd" d="M 399.2 230.4C 397.598 250.527 389.954 271.686 380.998 289.6C 338.473 374.65 237.774 420.202 146.4 390.925C 98.82 375.679 56.855 341.616 33.0469 297.6C 23.5806 280.099 18.1565 262.217 12.8 243.2L 12 243.2C 12.9626 265.563 24.4153 289.727 35.3204 308.8C 90.5792 405.446 221.488 434.626 313.6 373.597C 350.42 349.202 378.282 312.471 391.725 270.4C 394.626 261.322 397.289 251.823 398.628 242.4C 399.194 238.42 400.818 234.265 399.2 230.4z"/>
  <path style="stroke:none; fill:#ffe046" d="M 21.0666 233.334C 21.0222 233.378 20.9778 234.222 21.3334 233.866C 21.3778 233.822 21.4222 232.978 21.0666 233.334z"/>
  <path style="stroke:none; fill:#fff7cf" d="M 389.066 233.334C 389.022 233.378 388.978 234.222 389.334 233.866C 389.378 233.822 389.422 232.978 389.066 233.334z"/>
  <path style="stroke:none; fill:#fff4b8" d="M 21.0666 234.934C 21.0222 234.978 20.9778 235.822 21.3334 235.466C 21.3778 235.422 21.4222 234.578 21.0666 234.934z"/>
  <path style="stroke:none; fill:#ffe667" d="M 388 235.2L 388 237.6L 388.8 237.6C 388.599 236.438 388.548 236.198 388 235.2M 21.6 237.6L 21.6 240L 22.4 240C 22.199 238.838 22.1478 238.598 21.6 237.6z"/>
  <path style="stroke:none; fill:#ffeb85" d="M 387.2 240L 387.2 242.4L 388 242.4C 387.799 241.238 387.748 240.998 387.2 240M 22.4 241.6L 22.4 244L 23.2 244C 22.999 242.838 22.9478 242.598 22.4 241.6z"/>
  <path style="stroke:none; fill:#ffed9f" d="M 386.666 244.534C 386.622 244.578 386.578 245.422 386.934 245.066C 386.978 245.022 387.022 244.178 386.666 244.534M 23.4666 246.134C 23.4222 246.178 23.3778 247.022 23.7334 246.666C 23.7778 246.622 23.8222 245.778 23.4666 246.134M 385.866 247.734C 385.822 247.778 385.778 248.622 386.134 248.266C 386.178 248.222 386.222 247.378 385.866 247.734M 24.2666 249.334C 24.2222 249.378 24.1778 250.222 24.5334 249.866C 24.5778 249.822 24.6222 248.978 24.2666 249.334M 385.066 250.934C 385.022 250.978 384.978 251.822 385.334 251.466C 385.378 251.422 385.422 250.578 385.066 250.934z"/>
  <path style="stroke:none; fill:#fff4b8" d="M 25.0666 252.534C 25.0222 252.578 24.9778 253.422 25.3334 253.066C 25.3778 253.022 25.4222 252.178 25.0666 252.534z"/>
  <path style="stroke:none; fill:#ffeb85" d="M 384 253.6L 384.8 254.4L 384 253.6M 25.6 255.2L 26.4 256L 25.6 255.2z"/>
  <path style="stroke:none; fill:#ffed9f" d="M 383.466 256.534C 383.422 256.578 383.378 257.422 383.734 257.066C 383.778 257.022 383.822 256.178 383.466 256.534z"/>
  <path style="stroke:none; fill:#ffe667" d="M 26.4 257.6L 27.2 258.4L 26.4 257.6z"/>
  <path style="stroke:none; fill:#ffe046" d="M 382.4 258.4L 383.2 259.2L 382.4 258.4z"/>
  <path style="stroke:none; fill:#ffe667" d="M 27.2 260L 28 260.8L 27.2 260z"/>
  <path style="stroke:none; fill:#fff4b8" d="M 27.2 260.8L 28 261.6L 27.2 260.8z"/>
  <path style="stroke:none; fill:#ffeb85" d="M 381.6 261.6L 382.4 262.4L 381.6 261.6z"/>
  <path style="stroke:none; fill:#ffe667" d="M 28 262.4L 28.8 263.2L 28 262.4z"/>
  <path style="stroke:none; fill:#fff4b8" d="M 28 263.2L 28.8 264L 28 263.2z"/>
  <path style="stroke:none; fill:#ffed9f" d="M 380.8 264L 381.6 264.8L 380.8 264z"/>
  <path style="stroke:none; fill:#ffe667" d="M 28.8 264.8L 29.6 265.6L 28.8 264.8z"/>
  <path style="stroke:none; fill:#ffe046" d="M 380 265.6L 380.8 266.4L 380 265.6z"/>
  <path style="stroke:none; fill:#ffed9f" d="M 380 266.4L 380.8 267.2L 380 266.4z"/>
  <path style="stroke:none; fill:#ffeb85" d="M 29.6 267.2L 30.4 268L 29.6 267.2z"/>
  <path style="stroke:none; fill:#ffe667" d="M 379.2 268L 380 268.8L 379.2 268z"/>
  <path style="stroke:none; fill:#ffe046" d="M 30.4 268.8L 31.2 269.6L 30.4 268.8z"/>
  <path style="stroke:none; fill:#ffed9f" d="M 30.4 269.6L 31.2 270.4L 30.4 269.6z"/>
  <path style="stroke:none; fill:#ffeb85" d="M 378.4 270.4L 379.2 271.2L 378.4 270.4z"/>
  <path style="stroke:none; fill:#ffe667" d="M 31.2 271.2L 32 272L 31.2 271.2M 377.6 272L 378.4 272.8L 377.6 272z"/>
  <path style="stroke:none; fill:#ffed9f" d="M 32 273.6L 32.8 274.4L 32 273.6M 376.8 274.4L 377.6 275.2L 376.8 274.4z"/>
  <path style="stroke:none; fill:#ffeb85" d="M 32.8 275.2L 33.6 276L 32.8 275.2z"/>
  <path style="stroke:none; fill:#ffe667" d="M 376 276L 376.8 276.8L 376 276M 33.6 276.8L 34.4 277.6L 33.6 276.8z"/>
  <path style="stroke:none; fill:#ffe046" d="M 375.2 277.6L 376 278.4L 375.2 277.6z"/>
  <path style="stroke:none; fill:#ffed9f" d="M 34.4 279.2L 35.2 280L 34.4 279.2M 374.4 280L 375.2 280.8L 374.4 280M 35.2 280.8L 36 281.6L 35.2 280.8M 373.6 281.6L 374.4 282.4L 373.6 281.6z"/>
  <path style="stroke:none; fill:#ffeb85" d="M 36 282.4L 36.8 283.2L 36 282.4M 372.8 283.2L 373.6 284L 372.8 283.2M 36.8 284L 37.6 284.8L 36.8 284M 372 284.8L 372.8 285.6L 372 284.8M 37.6 285.6L 38.4 286.4L 37.6 285.6M 371.2 286.4L 372 287.2L 371.2 286.4M 38.4 287.2L 39.2 288L 38.4 287.2M 370.4 288L 371.2 288.8L 370.4 288M 39.2 288.8L 40 289.6L 39.2 288.8M 369.6 289.6L 370.4 290.4L 369.6 289.6z"/>
  <path style="stroke:none; fill:#ffed9f" d="M 40 290.4L 40.8 291.2L 40 290.4M 368.8 291.2L 369.6 292L 368.8 291.2M 40.8 292L 41.6 292.8L 40.8 292z"/>
  <path style="stroke:none; fill:#ffe046" d="M 42.4 294.4L 43.2 295.2L 42.4 294.4z"/>
  <path style="stroke:none; fill:#ffe667" d="M 366.4 295.2L 367.2 296L 366.4 295.2z"/>
  <path style="stroke:none; fill:#ffeb85" d="M 43.2 296L 44 296.8L 43.2 296M 365.6 296.8L 366.4 297.6L 365.6 296.8z"/>
  <path style="stroke:none; fill:#fff4b8" d="M 44 297.6L 44.8 298.4L 44 297.6z"/>
  <path style="stroke:none; fill:#ffe667" d="M 364 299.2L 364.8 300L 364 299.2z"/>
  <path style="stroke:none; fill:#ffeb85" d="M 45.6 300L 46.4 300.8L 45.6 300M 363.2 300.8L 364 301.6L 363.2 300.8z"/>
  <path style="stroke:none; fill:#ffe046" d="M 47.2 302.4L 48 303.2L 47.2 302.4z"/>
  <path style="stroke:none; fill:#ffeb85" d="M 361.6 303.2L 362.4 304L 361.6 303.2z"/>
  <path style="stroke:none; fill:#fff4b8" d="M 48 304L 48.8 304.8L 48 304z"/>
  <path style="stroke:none; fill:#ffeb85" d="M 360 305.6L 360.8 306.4L 360 305.6M 49.6 306.4L 50.4 307.2L 49.6 306.4z"/>
  <path style="stroke:none; fill:#ffe046" d="M 50.4 307.2L 51.2 308L 50.4 307.2z"/>
  <path style="stroke:none; fill:#ffeb85" d="M 358.4 308L 359.2 308.8L 358.4 308z"/>
  <path style="stroke:none; fill:#fff4b8" d="M 51.2 308.8L 52 309.6L 51.2 308.8z"/>
  <path style="stroke:none; fill:#ffe667" d="M 52 309.6L 52.8 310.4L 52 309.6z"/>
  <path style="stroke:none; fill:#ffeb85" d="M 356.8 310.4L 357.6 311.2L 356.8 310.4z"/>
  <path style="stroke:none; fill:#ffe046" d="M 356 311.2L 356.8 312L 356 311.2z"/>
  <path style="stroke:none; fill:#ffeb85" d="M 53.6 312L 54.4 312.8L 53.6 312M 354.4 313.6L 355.2 314.4L 354.4 313.6M 56 315.2L 56.8 316L 56 315.2M 352 316.8L 352.8 317.6L 352 316.8z"/>
  <path style="stroke:none; fill:#ffe046" d="M 351.2 317.6L 352 318.4L 351.2 317.6z"/>
  <path style="stroke:none; fill:#ffed9f" d="M 58.4 318.4L 59.2 319.2L 58.4 318.4z"/>
  <path style="stroke:none; fill:#ffe667" d="M 59.2 319.2L 60 320L 59.2 319.2z"/>
  <path style="stroke:none; fill:#fff4b8" d="M 349.6 320L 350.4 320.8L 349.6 320z"/>
  <path style="stroke:none; fill:#ffeb85" d="M 348.8 320.8L 349.6 321.6L 348.8 320.8z"/>
  <path style="stroke:none; fill:#ffe667" d="M 348 321.6L 348.8 322.4L 348 321.6z"/>
  <path style="stroke:none; fill:#ffed9f" d="M 61.6 322.4L 62.4 323.2L 61.6 322.4z"/>
  <path style="stroke:none; fill:#ffeb85" d="M 62.4 323.2L 63.2 324L 62.4 323.2z"/>
  <path style="stroke:none; fill:#ffe667" d="M 63.2 324L 64 324.8L 63.2 324z"/>
  <path style="stroke:none; fill:#ffed9f" d="M 344.8 325.6L 345.6 326.4L 344.8 325.6z"/>
  <path style="stroke:none; fill:#ffeb85" d="M 344 326.4L 344.8 327.2L 344 326.4z"/>
  <path style="stroke:none; fill:#ffe667" d="M 343.2 327.2L 344 328L 343.2 327.2M 342.4 328L 343.2 328.8L 342.4 328z"/>
  <path style="stroke:none; fill:#ffed9f" d="M 67.2 328.8L 68 329.6L 67.2 328.8M 68 329.6L 68.8 330.4L 68 329.6M 68.8 330.4L 69.6 331.2L 68.8 330.4M 69.6 331.2L 70.4 332L 69.6 331.2z"/>
  <path style="stroke:none; fill:#ffe667" d="M 70.4 332L 71.2 332.8L 70.4 332M 71.2 332.8L 72 333.6L 71.2 332.8M 72 333.6L 72.8 334.4L 72 333.6M 72.8 334.4L 73.6 335.2L 72.8 334.4M 73.6 335.2L 74.4 336L 73.6 335.2M 74.4 336L 75.2 336.8L 74.4 336z"/>
  <path style="stroke:none; fill:#ffeb85" d="M 75.2 336.8L 76 337.6L 75.2 336.8z"/>
  <path style="stroke:none; fill:#ffed9f" d="M 76 337.6L 76.8 338.4L 76 337.6M 76.8 338.4L 77.6 339.2L 76.8 338.4M 77.6 339.2L 78.4 340L 77.6 339.2z"/>
  <path style="stroke:none; fill:#fff4b8" d="M 78.4 340L 79.2 340.8L 78.4 340z"/>
  <path style="stroke:none; fill:#ffe667" d="M 330.4 340L 331.2 340.8L 330.4 340M 329.6 340.8L 330.4 341.6L 329.6 340.8M 328.8 341.6L 329.6 342.4L 328.8 341.6z"/>
  <path style="stroke:none; fill:#ffed9f" d="M 328 342.4L 328.8 343.2L 328 342.4z"/>
  <path style="stroke:none; fill:#ffe046" d="M 82.4 343.2L 83.2 344L 82.4 343.2z"/>
  <path style="stroke:none; fill:#fff4b8" d="M 327.2 343.2L 328 344L 327.2 343.2z"/>
  <path style="stroke:none; fill:#ffe667" d="M 83.2 344L 84 344.8L 83.2 344z"/>
  <path style="stroke:none; fill:#ffeb85" d="M 84 344.8L 84.8 345.6L 84 344.8z"/>
  <path style="stroke:none; fill:#fff4b8" d="M 84.8 345.6L 85.6 346.4L 84.8 345.6z"/>
  <path style="stroke:none; fill:#ffe046" d="M 324 345.6L 324.8 346.4L 324 345.6z"/>
  <path style="stroke:none; fill:#ffe667" d="M 323.2 346.4L 324 347.2L 323.2 346.4z"/>
  <path style="stroke:none; fill:#ffed9f" d="M 322.4 347.2L 323.2 348L 322.4 347.2z"/>
  <path style="stroke:none; fill:#ffe667" d="M 88 348L 88.8 348.8L 88 348z"/>
  <path style="stroke:none; fill:#ffed9f" d="M 88.8 348.8L 89.6 349.6L 88.8 348.8z"/>
  <path style="stroke:none; fill:#ffe667" d="M 319.2 349.6L 320 350.4L 319.2 349.6z"/>
  <path style="stroke:none; fill:#ffe046" d="M 91.2 350.4L 92 351.2L 91.2 350.4z"/>
  <path style="stroke:none; fill:#fff4b8" d="M 318.4 350.4L 319.2 351.2L 318.4 350.4z"/>
  <path style="stroke:none; fill:#ffeb85" d="M 92 351.2L 92.8 352L 92 351.2z"/>
  <path style="stroke:none; fill:#ffe667" d="M 316 352L 316.8 352.8L 316 352z"/>
  <path style="stroke:none; fill:#ffe046" d="M 94.4 352.8L 95.2 353.6L 94.4 352.8z"/>
  <path style="stroke:none; fill:#fff4b8" d="M 315.2 352.8L 316 353.6L 315.2 352.8z"/>
  <path style="stroke:none; fill:#ffeb85" d="M 95.2 353.6L 96 354.4L 95.2 353.6M 312.8 354.4L 313.6 355.2L 312.8 354.4z"/>
  <path style="stroke:none; fill:#ffe667" d="M 97.6 355.2L 98.4 356L 97.6 355.2M 310.4 356L 311.2 356.8L 310.4 356z"/>
  <path style="stroke:none; fill:#ffe046" d="M 100 356.8L 100.8 357.6L 100 356.8z"/>
  <path style="stroke:none; fill:#fff4b8" d="M 309.6 356.8L 310.4 357.6L 309.6 356.8M 100.8 357.6L 101.6 358.4L 100.8 357.6z"/>
  <path style="stroke:none; fill:#ffe046" d="M 308 357.6L 308.8 358.4L 308 357.6M 102.4 358.4L 103.2 359.2L 102.4 358.4z"/>
  <path style="stroke:none; fill:#fff4b8" d="M 307.2 358.4L 308 359.2L 307.2 358.4M 103.2 359.2L 104 360L 103.2 359.2z"/>
  <path style="stroke:none; fill:#ffe667" d="M 305.6 359.2L 306.4 360L 305.6 359.2M 104.8 360L 105.6 360.8L 104.8 360z"/>
  <path style="stroke:none; fill:#ffeb85" d="M 303.2 360.8L 304 361.6L 303.2 360.8M 107.2 361.6L 108 362.4L 107.2 361.6z"/>
  <path style="stroke:none; fill:#ffe046" d="M 108.8 362.4L 109.6 363.2L 108.8 362.4z"/>
  <path style="stroke:none; fill:#ffed9f" d="M 300.8 362.4L 301.6 363.2L 300.8 362.4z"/>
  <path style="stroke:none; fill:#ffeb85" d="M 299.2 363.2L 300 364L 299.2 363.2M 111.2 364L 112 364.8L 111.2 364z"/>
  <path style="stroke:none; fill:#ffe667" d="M 112.8 364.8L 113.6 365.6L 112.8 364.8z"/>
  <path style="stroke:none; fill:#ffe046" d="M 114.4 365.6L 115.2 366.4L 114.4 365.6z"/>
  <path style="stroke:none; fill:#ffed9f" d="M 295.2 365.6L 296 366.4L 295.2 365.6z"/>
  <path style="stroke:none; fill:#ffeb85" d="M 293.6 366.4L 294.4 367.2L 293.6 366.4z"/>
  <path style="stroke:none; fill:#fff4b8" d="M 116.8 367.2L 117.6 368L 116.8 367.2z"/>
  <path style="stroke:none; fill:#ffe667" d="M 292 367.2L 292.8 368L 292 367.2z"/>
  <path style="stroke:none; fill:#ffed9f" d="M 118.4 368L 119.2 368.8L 118.4 368z"/>
  <path style="stroke:none; fill:#ffe667" d="M 290.4 368L 291.2 368.8L 290.4 368z"/>
  <path style="stroke:none; fill:#ffed9f" d="M 120 368.8L 120.8 369.6L 120 368.8z"/>
  <path style="stroke:none; fill:#ffe667" d="M 288.8 368.8L 289.6 369.6L 288.8 368.8z"/>
  <path style="stroke:none; fill:#ffed9f" d="M 121.6 369.6L 122.4 370.4L 121.6 369.6z"/>
  <path style="stroke:none; fill:#ffe667" d="M 287.2 369.6L 288 370.4L 287.2 369.6z"/>
  <path style="stroke:none; fill:#ffed9f" d="M 123.2 370.4L 124 371.2L 123.2 370.4z"/>
  <path style="stroke:none; fill:#ffe667" d="M 285.6 370.4L 286.4 371.2L 285.6 370.4z"/>
  <path style="stroke:none; fill:#ffed9f" d="M 124.8 371.2L 125.6 372L 124.8 371.2z"/>
  <path style="stroke:none; fill:#ffe667" d="M 284 371.2L 284.8 372L 284 371.2z"/>
  <path style="stroke:none; fill:#ffeb85" d="M 282.4 372L 283.2 372.8L 282.4 372z"/>
  <path style="stroke:none; fill:#ffe667" d="M 128.8 372.8L 129.6 373.6L 128.8 372.8z"/>
  <path style="stroke:none; fill:#ffed9f" d="M 280.8 372.8L 281.6 373.6L 280.8 372.8z"/>
  <path style="stroke:none; fill:#ffeb85" d="M 130.4 373.6L 131.2 374.4L 130.4 373.6z"/>
  <path style="stroke:none; fill:#fff4b8" d="M 279.2 373.6L 280 374.4L 279.2 373.6z"/>
  <path style="stroke:none; fill:#ffed9f" d="M 132 374.4L 132.8 375.2L 132 374.4z"/>
  <path style="stroke:none; fill:#ffe667" d="M 276.8 374.4L 277.6 375.2L 276.8 374.4M 134.4 375.2L 135.2 376L 134.4 375.2z"/>
  <path style="stroke:none; fill:#ffed9f" d="M 275.2 375.2L 276 376L 275.2 375.2z"/>
  <path style="stroke:none; fill:#ffeb85" d="M 136 376L 136.8 376.8L 136 376z"/>
  <path style="stroke:none; fill:#ffe667" d="M 272.8 376L 273.6 376.8L 272.8 376M 138.4 376.8L 139.2 377.6L 138.4 376.8z"/>
  <path style="stroke:none; fill:#ffed9f" d="M 271.2 376.8L 272 377.6L 271.2 376.8M 140 377.6L 140.8 378.4L 140 377.6z"/>
  <path style="stroke:none; fill:#ffe046" d="M 140.8 377.6L 141.6 378.4L 140.8 377.6z"/>
  <path style="stroke:none; fill:#ffe667" d="M 268.8 377.6L 269.6 378.4L 268.8 377.6z"/>
  <path style="stroke:none; fill:#ffeb85" d="M 142.4 378.4L 143.2 379.2L 142.4 378.4z"/>
  <path style="stroke:none; fill:#ffe667" d="M 266.4 378.4L 267.2 379.2L 266.4 378.4z"/>
  <path style="stroke:none; fill:#ffeb85" d="M 144.8 379.2L 145.6 380L 144.8 379.2z"/>
  <path style="stroke:none; fill:#ffe667" d="M 264 379.2L 264.8 380L 264 379.2z"/>
  <path style="stroke:none; fill:#fff4b8" d="M 264.8 379.2L 265.6 380L 264.8 379.2z"/>
  <path style="stroke:none; fill:#ffeb85" d="M 147.2 380L 148 380.8L 147.2 380z"/>
  <path style="stroke:none; fill:#ffe667" d="M 261.6 380L 262.4 380.8L 261.6 380z"/>
  <path style="stroke:none; fill:#fff4b8" d="M 262.4 380L 263.2 380.8L 262.4 380z"/>
  <path style="stroke:none; fill:#ffed9f" d="M 149.6 380.8L 150.4 381.6L 149.6 380.8z"/>
  <path style="stroke:none; fill:#ffe046" d="M 150.4 380.8L 151.2 381.6L 150.4 380.8z"/>
  <path style="stroke:none; fill:#ffe667" d="M 259.2 380.8L 260 381.6L 259.2 380.8z"/>
  <path style="stroke:none; fill:#fff4b8" d="M 152 381.6L 152.8 382.4L 152 381.6z"/>
  <path style="stroke:none; fill:#ffeb85" d="M 256.534 381.866C 256.178 382.222 257.022 382.178 257.066 382.134C 257.422 381.778 256.578 381.822 256.534 381.866z"/>
  <path style="stroke:none; fill:#ffe046" d="M 155.734 382.666C 155.378 383.022 156.222 382.978 156.266 382.934C 156.622 382.578 155.778 382.622 155.734 382.666z"/>
  <path style="stroke:none; fill:#fff4b8" d="M 254.134 382.666C 253.778 383.022 254.622 382.978 254.666 382.934C 255.022 382.578 254.178 382.622 254.134 382.666z"/>
  <path style="stroke:none; fill:#ffeb85" d="M 157.6 383.2L 157.6 384L 160 384C 159.002 383.452 158.762 383.401 157.6 383.2z"/>
  <path style="stroke:none; fill:#ffed9f" d="M 250.934 383.466C 250.578 383.822 251.422 383.778 251.466 383.734C 251.822 383.378 250.978 383.422 250.934 383.466z"/>
  <path style="stroke:none; fill:#ffeb85" d="M 160.8 384L 160.8 384.8L 163.2 384.8C 162.202 384.252 161.962 384.201 160.8 384z"/>
  <path style="stroke:none; fill:#ffed9f" d="M 247.734 384.266C 247.378 384.622 248.222 384.578 248.266 384.534C 248.622 384.178 247.778 384.222 247.734 384.266z"/>
  <path style="stroke:none; fill:#ffe667" d="M 165.334 385.066C 164.978 385.422 165.822 385.378 165.866 385.334C 166.222 384.978 165.378 385.022 165.334 385.066z"/>
  <path style="stroke:none; fill:#ffeb85" d="M 243.734 385.066C 243.378 385.422 244.222 385.378 244.266 385.334C 244.622 384.978 243.778 385.022 243.734 385.066M 168 385.6L 168 386.4L 170.4 386.4C 169.402 385.852 169.162 385.801 168 385.6M 239.2 385.6L 239.2 386.4L 241.6 386.4C 240.602 385.852 240.362 385.801 239.2 385.6M 173.334 386.666C 172.978 387.022 173.822 386.978 173.866 386.934C 174.222 386.578 173.378 386.622 173.334 386.666z"/>
  <path style="stroke:none; fill:#ffe046" d="M 174.934 386.666C 174.578 387.022 175.422 386.978 175.466 386.934C 175.822 386.578 174.978 386.622 174.934 386.666z"/>
  <path style="stroke:none; fill:#ffeb85" d="M 234.4 386.4L 234.4 387.2L 237.6 387.2C 236.395 386.654 235.748 386.539 234.4 386.4M 177.6 387.2L 177.6 388L 180 388C 179.002 387.452 178.762 387.401 177.6 387.2z"/>
  <path style="stroke:none; fill:#ffe046" d="M 180.534 387.466C 180.178 387.822 181.022 387.778 181.066 387.734C 181.422 387.378 180.578 387.422 180.534 387.466z"/>
  <path style="stroke:none; fill:#ffe667" d="M 228.8 387.2L 228.8 388L 231.2 388C 230.202 387.452 229.962 387.401 228.8 387.2z"/>
  <path style="stroke:none; fill:#fff4b8" d="M 231.734 387.466C 231.378 387.822 232.222 387.778 232.266 387.734C 232.622 387.378 231.778 387.422 231.734 387.466M 183.734 388.266C 183.378 388.622 184.222 388.578 184.266 388.534C 184.622 388.178 183.778 388.222 183.734 388.266z"/>
  <path style="stroke:none; fill:#ffeb85" d="M 184.8 388L 184.8 388.8L 187.2 388.8C 186.202 388.252 185.962 388.201 184.8 388z"/>
  <path style="stroke:none; fill:#ffe046" d="M 187.2 388L 187.2 388.8L 189.6 388.8C 188.602 388.252 188.362 388.201 187.2 388M 220.8 388L 220.8 388.8L 223.2 388.8C 222.202 388.252 221.962 388.201 220.8 388z"/>
  <path style="stroke:none; fill:#ffeb85" d="M 223.734 388.266C 223.378 388.622 224.222 388.578 224.266 388.534C 224.622 388.178 223.778 388.222 223.734 388.266z"/>
  <path style="stroke:none; fill:#fff4b8" d="M 225.334 388.266C 224.978 388.622 225.822 388.578 225.866 388.534C 226.222 388.178 225.378 388.222 225.334 388.266M 192 388.8L 192 389.6L 195.2 389.6C 193.995 389.054 193.348 388.939 192 388.8z"/>
  <path style="stroke:none; fill:#ffeb85" d="M 195.2 388.8L 195.2 389.6L 201.6 389.6C 199.51 388.722 197.468 388.806 195.2 388.8z"/>
  <path style="stroke:none; fill:#ffe046" d="M 201.6 388.8L 201.6 389.6L 208.8 389.6C 206.488 388.63 204.101 388.802 201.6 388.8z"/>
  <path style="stroke:none; fill:#ffeb85" d="M 208.8 388.8L 208.8 389.6L 214.4 389.6C 212.534 388.812 210.834 388.815 208.8 388.8z"/>
  <path style="stroke:none; fill:#fff4b8" d="M 214.4 388.8L 214.4 389.6L 218.4 389.6C 216.985 388.977 215.971 388.87 214.4 388.8z"/>
  <path style="stroke:none; fill:#e7e7e7" d="M 176.8 397.6L 176.8 398.4L 180 398.4C 178.795 397.854 178.148 397.739 176.8 397.6z"/>
  <path style="stroke:none; fill:#e2e2e3" d="M 228.8 397.6L 228.8 398.4L 232 398.4C 230.795 397.854 230.148 397.739 228.8 397.6z"/>
  <path style="stroke:none; fill:#e7e7e7" d="M 220.8 398.4L 220.8 399.2L 226.4 399.2C 224.534 398.412 222.834 398.415 220.8 398.4M 196 399.2L 196 400L 217.6 400C 211.673 397.513 202.42 399.2 196 399.2z"/>
  <path style="stroke:none; fill:#e2e2e3" d="M 176.8 404L 176.8 404.8L 180 404.8C 178.795 404.254 178.148 404.139 176.8 404z"/>
  <path style="stroke:none; fill:#e7e7e7" d="M 228.8 404L 228.8 404.8L 232 404.8C 230.795 404.254 230.148 404.139 228.8 404z"/>
  <path style="stroke:none; fill:#e2e2e3" d="M 220.8 404.8L 220.8 405.6L 226.4 405.6C 224.534 404.812 222.834 404.815 220.8 404.8M 196 405.6L 196 406.4L 217.6 406.4C 211.673 403.913 202.42 405.6 196 405.6z"/>
 </g>
</svg>
